<svg version="1.1" xmlns="http://www.w3.org/2000/svg" xmlns:xlink="http://www.w3.org/1999/xlink" x="0px" y="0px"
	 width="200px" height="200px" viewBox="0 0 776 792" enable-background="new 0 0 776 792" xml:space="preserve">
<path fill="#0a192f" opacity="1.000000" stroke="none" 
	d="
M505.000000,793.000000 
	C336.666656,793.000000 168.833328,793.000000 1.000000,793.000000 
	C1.000000,529.000000 1.000000,265.000000 1.000000,1.000000 
	C259.666656,1.000000 518.333313,1.000000 777.000000,1.000000 
	C777.000000,265.000000 777.000000,529.000000 777.000000,793.000000 
	C686.500000,793.000000 596.000000,793.000000 505.000000,793.000000 
M333.001038,73.561180 
	C329.015289,77.093407 324.806915,80.407402 321.087952,84.201141 
	C312.022125,93.449219 302.712585,102.522186 294.369690,112.399277 
	C283.484741,125.285881 273.046783,138.596283 263.131653,152.243896 
	C251.300247,168.529236 241.593460,186.114349 233.733948,204.700607 
	C225.373779,224.470764 219.697952,244.545868 221.869980,266.496735 
	C223.719131,285.184448 230.373825,301.622864 241.204941,316.647064 
	C244.776459,321.601227 248.363647,326.544098 252.197067,331.842377 
	C247.985260,332.337158 244.453781,332.321991 241.166580,333.210541 
	C224.522293,337.709686 207.628937,341.565094 191.422195,347.330780 
	C173.549149,353.689209 158.534409,364.413940 151.092056,383.012146 
	C142.977341,403.290619 135.029678,423.635986 127.032852,443.961517 
	C119.031967,464.297394 110.789230,484.544403 103.205956,505.035217 
	C100.060509,513.534546 97.191010,522.441467 96.233772,531.381165 
	C94.278305,549.643372 102.612549,564.325806 114.803841,577.286133 
	C127.669312,590.963196 142.467300,602.150330 158.530090,611.661804 
	C175.172989,621.516907 192.939804,628.863159 211.532166,634.269470 
	C214.346786,635.087891 215.063309,634.047546 214.841782,631.962402 
	C214.581299,629.510620 213.292435,627.160400 213.085144,624.712280 
	C212.542099,618.298889 212.387482,611.853638 212.000183,605.425781 
	C211.359085,594.786438 210.703644,584.147400 209.968674,573.514160 
	C209.026627,559.884521 207.936142,546.264893 207.035461,532.632629 
	C206.559387,525.427185 206.574173,518.185120 205.963959,510.993805 
	C205.198196,501.969543 203.779602,492.998749 203.087311,483.970734 
	C202.429901,475.397675 202.490219,466.771759 201.963242,458.185791 
	C201.551376,451.475250 200.494034,444.802032 200.150192,438.090363 
	C199.852585,432.281342 198.676834,425.917572 200.515930,420.730225 
	C203.814026,411.427673 211.308044,406.831177 221.774948,406.857208 
	C286.105103,407.017212 350.435913,406.932922 414.766479,406.933441 
	C461.597809,406.933807 508.429535,407.037689 555.260193,406.858276 
	C564.376099,406.823364 575.131226,416.120544 574.093933,425.492706 
	C572.971008,435.637726 572.706177,445.875793 571.979431,456.067047 
	C571.031372,469.363037 569.980835,482.651672 569.003662,495.945618 
	C567.651978,514.334595 566.268005,532.721436 565.013184,551.117065 
	C564.227356,562.637146 563.684387,574.173462 562.970764,585.698730 
	C562.645325,590.955200 562.197937,596.204590 561.757996,601.453247 
	C560.879272,611.936584 559.932068,622.414368 559.127869,632.903259 
	C559.052856,633.880981 559.796692,634.921448 560.157410,635.924622 
	C566.328064,634.021729 572.124023,632.385437 577.819641,630.453125 
	C611.330933,619.084229 640.872864,601.347900 665.028015,575.254028 
	C672.078796,567.637268 678.437500,558.827820 679.584717,548.513672 
	C681.127686,534.641174 681.038757,520.524109 675.025024,507.169617 
	C670.347534,496.782410 666.166077,486.164948 661.980896,475.564240 
	C650.129395,445.545410 638.681213,415.362396 626.399048,385.521942 
	C623.344666,378.101196 618.591248,370.933105 613.107788,365.059631 
	C604.049866,355.357513 591.890137,349.834747 579.638367,345.206848 
	C564.359497,339.435486 548.652100,334.985382 532.349182,332.967926 
	C529.918457,332.667114 527.557678,331.801270 525.391052,331.254028 
	C530.302246,323.838470 534.867859,316.876923 539.501099,309.960785 
	C557.748962,282.722137 559.286316,253.333786 549.734985,223.014557 
	C542.480286,199.985504 531.030701,178.823257 517.837646,158.642578 
	C501.843628,134.177429 483.574738,111.504189 462.482544,91.282410 
	C452.524506,81.735336 441.581604,73.189728 430.842377,64.489784 
	C417.492157,53.674694 403.452911,45.144459 384.882629,46.700790 
	C375.869049,47.456196 367.750977,49.321564 360.401611,54.240677 
	C351.317535,60.320900 342.474915,66.761948 333.001038,73.561180 
M191.315796,677.308105 
	C196.789200,682.543457 203.462601,684.197876 210.843811,684.195618 
	C328.332245,684.159424 445.820770,684.203857 563.308960,684.036560 
	C567.878113,684.030029 572.750977,682.786133 576.954773,680.926331 
	C589.581116,675.340332 594.725464,662.715515 594.487610,650.763000 
	C583.114929,650.763000 571.755920,650.762085 560.396912,650.763123 
	C456.407043,650.772217 352.417145,650.831360 248.427322,650.750427 
	C226.809662,650.733643 205.191696,650.238098 183.575729,649.857239 
	C180.293320,649.799377 178.639908,650.499146 178.924713,654.287903 
	C179.623703,663.586060 183.683640,671.028076 191.315796,677.308105 
M275.934357,556.021484 
	C281.184570,554.717957 286.434784,553.414490 292.039978,552.022888 
	C292.541046,552.583008 293.684845,553.979919 294.949982,555.256714 
	C302.927094,563.306641 310.835205,571.429321 318.988129,579.297913 
	C321.263916,581.494324 321.608337,583.418213 321.198334,586.477844 
	C320.586395,591.044495 320.507507,595.831604 321.155945,600.389221 
	C322.895111,612.612610 338.113617,621.568726 350.109833,618.455566 
	C361.065735,615.612488 369.396881,606.906128 369.338898,592.296875 
	C369.299011,582.252197 360.872711,571.550232 351.673340,569.435791 
	C344.199219,567.717834 336.878265,568.451355 332.737762,571.328796 
	C321.926422,561.554688 311.755798,552.462646 301.776520,543.165222 
	C300.864685,542.315674 300.973816,540.152771 300.957825,538.596191 
	C300.882385,531.252014 300.867706,523.905640 300.977081,516.562256 
	C301.002258,514.873352 301.014130,512.582153 302.029755,511.604401 
	C310.978088,502.989685 320.092743,494.543060 329.350739,486.261963 
	C330.277618,485.432892 332.609039,485.602112 334.066650,486.042572 
	C338.995209,487.531952 343.504883,489.306580 349.138611,488.140015 
	C364.573212,484.944092 374.282013,468.474304 368.246155,453.942047 
	C362.209167,439.407104 348.705994,435.210510 333.771515,441.032837 
	C322.857300,445.287842 318.239685,457.166138 320.886444,468.776306 
	C321.698914,472.340118 321.842102,475.549316 318.192322,478.634735 
	C309.000641,486.405212 300.401581,494.876740 291.668762,502.971039 
	C289.663361,501.928864 288.124420,500.915039 286.441345,500.288300 
	C272.591705,495.130615 259.258270,497.430084 250.691925,510.085236 
	C246.168900,516.767151 244.459381,524.374756 245.916794,532.825195 
	C248.431000,547.403259 261.343719,557.036194 275.934357,556.021484 
M447.140503,495.577240 
	C447.986969,493.257782 449.531830,490.920959 449.474670,488.623962 
	C449.422272,486.516663 448.070648,483.925049 446.437408,482.597626 
	C445.652618,481.959747 442.593903,483.366272 441.126740,484.545776 
	C439.818787,485.597351 439.117249,487.542847 438.433990,489.210968 
	C428.070679,514.512939 417.748474,539.831787 407.434814,565.154053 
	C406.151520,568.304871 404.873901,571.808533 408.884735,573.753357 
	C413.065582,575.780640 415.346619,572.906677 416.807739,569.427673 
	C419.613983,562.745850 422.273590,556.002563 425.033997,549.301270 
	C432.311310,531.634460 439.610077,513.976379 447.140503,495.577240 
M382.007690,554.502502 
	C384.244324,556.465759 386.259430,558.824097 388.798553,560.247925 
	C390.386078,561.138123 394.160492,561.315125 394.515961,560.600159 
	C395.465942,558.689575 395.477081,556.062012 395.107666,553.844910 
	C394.904541,552.626038 393.138184,551.697937 392.149017,550.574890 
	C386.072296,543.676025 380.016296,536.758972 373.989807,529.889465 
	C380.329529,524.009705 388.112152,516.803223 395.880249,509.581116 
	C398.551697,507.097443 400.214630,504.284119 397.313599,500.996887 
	C394.418152,497.716064 391.264191,499.653442 389.046173,501.687134 
	C380.224731,509.775330 371.558289,518.043152 363.091187,526.501465 
	C360.193787,529.395813 359.944824,532.776611 363.394073,536.054810 
	C369.553040,541.908264 375.464386,548.022339 382.007690,554.502502 
M470.967224,516.534363 
	C476.015289,521.243347 481.063324,525.952393 486.067291,530.620239 
	C478.324066,537.930115 471.055817,544.921631 463.625366,551.736267 
	C461.000793,554.143311 460.002045,556.705505 462.349243,559.499329 
	C464.666412,562.257446 467.501740,561.939819 470.101807,559.538635 
	C478.499084,551.783447 486.946320,544.081360 495.269257,536.247131 
	C498.958923,532.774048 499.032227,529.687683 495.427246,526.029663 
	C491.828033,522.377380 487.846680,519.105164 484.147247,515.547363 
	C479.709869,511.279877 475.408142,506.871674 471.018768,502.553802 
	C468.758484,500.330322 466.267029,500.088715 464.064545,502.458954 
	C461.947632,504.737244 461.127167,507.185120 464.084412,509.711426 
	C466.354980,511.651093 468.349213,513.914185 470.967224,516.534363 
z"/>
<path fill="#FE9D00" opacity="1.000000" stroke="none" 
	d="
M333.264526,73.304138 
	C342.474915,66.761948 351.317535,60.320900 360.401611,54.240677 
	C367.750977,49.321564 375.869049,47.456196 384.882629,46.700790 
	C403.452911,45.144459 417.492157,53.674694 430.842377,64.489784 
	C441.581604,73.189728 452.524506,81.735336 462.482544,91.282410 
	C483.574738,111.504189 501.843628,134.177429 517.837646,158.642578 
	C531.030701,178.823257 542.480286,199.985504 549.734985,223.014557 
	C559.286316,253.333786 557.748962,282.722137 539.501099,309.960785 
	C534.867859,316.876923 530.302246,323.838470 525.391052,331.254028 
	C527.557678,331.801270 529.918457,332.667114 532.349182,332.967926 
	C548.652100,334.985382 564.359497,339.435486 579.638367,345.206848 
	C591.890137,349.834747 604.049866,355.357513 613.107788,365.059631 
	C618.591248,370.933105 623.344666,378.101196 626.399048,385.521942 
	C638.681213,415.362396 650.129395,445.545410 661.980896,475.564240 
	C666.166077,486.164948 670.347534,496.782410 675.025024,507.169617 
	C681.038757,520.524109 681.127686,534.641174 679.584717,548.513672 
	C678.437500,558.827820 672.078796,567.637268 665.028015,575.254028 
	C640.872864,601.347900 611.330933,619.084229 577.819641,630.453125 
	C572.124023,632.385437 566.328064,634.021729 560.157410,635.924622 
	C559.796692,634.921448 559.052856,633.880981 559.127869,632.903259 
	C559.932068,622.414368 560.879272,611.936584 561.757996,601.453247 
	C562.197937,596.204590 562.645325,590.955200 562.970764,585.698730 
	C563.684387,574.173462 564.227356,562.637146 565.013184,551.117065 
	C566.268005,532.721436 567.651978,514.334595 569.003662,495.945618 
	C569.980835,482.651672 571.031372,469.363037 571.979431,456.067047 
	C572.706177,445.875793 572.971008,435.637726 574.093933,425.492706 
	C575.131226,416.120544 564.376099,406.823364 555.260193,406.858276 
	C508.429535,407.037689 461.597809,406.933807 414.766479,406.933441 
	C350.435913,406.932922 286.105103,407.017212 221.774948,406.857208 
	C211.308044,406.831177 203.814026,411.427673 200.515930,420.730225 
	C198.676834,425.917572 199.852585,432.281342 200.150192,438.090363 
	C200.494034,444.802032 201.551376,451.475250 201.963242,458.185791 
	C202.490219,466.771759 202.429901,475.397675 203.087311,483.970734 
	C203.779602,492.998749 205.198196,501.969543 205.963959,510.993805 
	C206.574173,518.185120 206.559387,525.427185 207.035461,532.632629 
	C207.936142,546.264893 209.026627,559.884521 209.968674,573.514160 
	C210.703644,584.147400 211.359085,594.786438 212.000183,605.425781 
	C212.387482,611.853638 212.542099,618.298889 213.085144,624.712280 
	C213.292435,627.160400 214.581299,629.510620 214.841782,631.962402 
	C215.063309,634.047546 214.346786,635.087891 211.532166,634.269470 
	C192.939804,628.863159 175.172989,621.516907 158.530090,611.661804 
	C142.467300,602.150330 127.669312,590.963196 114.803841,577.286133 
	C102.612549,564.325806 94.278305,549.643372 96.233772,531.381165 
	C97.191010,522.441467 100.060509,513.534546 103.205956,505.035217 
	C110.789230,484.544403 119.031967,464.297394 127.032852,443.961517 
	C135.029678,423.635986 142.977341,403.290619 151.092056,383.012146 
	C158.534409,364.413940 173.549149,353.689209 191.422195,347.330780 
	C207.628937,341.565094 224.522293,337.709686 241.166580,333.210541 
	C244.453781,332.321991 247.985260,332.337158 252.197067,331.842377 
	C248.363647,326.544098 244.776459,321.601227 241.204941,316.647064 
	C230.373825,301.622864 223.719131,285.184448 221.869980,266.496735 
	C219.697952,244.545868 225.373779,224.470764 233.733948,204.700607 
	C241.593460,186.114349 251.300247,168.529236 263.131653,152.243896 
	C273.046783,138.596283 283.484741,125.285881 294.369690,112.399277 
	C302.712585,102.522186 312.022125,93.449219 321.087952,84.201141 
	C324.806915,80.407402 329.015289,77.093407 333.264526,73.304138 
M349.436798,195.913162 
	C340.787964,197.591629 331.991882,198.732590 323.519073,201.053665 
	C301.776062,207.010056 281.105103,215.017136 264.588287,231.500580 
	C256.457672,239.614792 251.557297,248.822800 252.165741,260.041107 
	C252.593811,267.934052 254.486542,275.905975 256.823059,283.505096 
	C262.258209,301.181885 270.994720,317.355133 283.034943,331.326630 
	C291.869293,341.578033 301.502747,351.327942 311.834076,360.053406 
	C323.957764,370.292725 337.972198,378.054077 353.263062,382.529755 
	C365.173676,386.016052 377.274445,389.696167 389.981049,388.938904 
	C394.481842,388.670715 398.942108,387.717133 403.420013,387.070557 
	C419.610077,384.732880 434.625153,379.151428 448.730835,370.915039 
	C464.101746,361.939880 477.777832,350.914764 488.683624,336.842590 
	C496.376434,326.916229 503.784454,316.686829 510.371796,306.008057 
	C517.626038,294.248077 521.778870,281.046844 523.734985,267.393402 
	C525.606628,254.329788 523.311157,242.332947 513.205811,232.470825 
	C501.347443,220.897751 487.329407,212.905167 472.123505,207.118866 
	C448.862335,198.267319 424.458130,194.257217 399.703186,193.116547 
	C386.826965,192.523239 373.866516,193.543564 360.954407,194.081451 
	C357.393036,194.229797 353.868591,195.263840 349.436798,195.913162 
z"/>
<path fill="#FF9D00" opacity="1.000000" stroke="none" 
	d="
M190.964478,677.185181 
	C183.683640,671.028076 179.623703,663.586060 178.924713,654.287903 
	C178.639908,650.499146 180.293320,649.799377 183.575729,649.857239 
	C205.191696,650.238098 226.809662,650.733643 248.427322,650.750427 
	C352.417145,650.831360 456.407043,650.772217 560.396912,650.763123 
	C571.755920,650.762085 583.114929,650.763000 594.487610,650.763000 
	C594.725464,662.715515 589.581116,675.340332 576.954773,680.926331 
	C572.750977,682.786133 567.878113,684.030029 563.308960,684.036560 
	C445.820770,684.203857 328.332245,684.159424 210.843811,684.195618 
	C203.462601,684.197876 196.789200,682.543457 190.964478,677.185181 
z"/>
<path fill="#FB9B01" opacity="1.000000" stroke="none" 
	d="
M275.526672,556.159546 
	C261.343719,557.036194 248.431000,547.403259 245.916794,532.825195 
	C244.459381,524.374756 246.168900,516.767151 250.691925,510.085236 
	C259.258270,497.430084 272.591705,495.130615 286.441345,500.288300 
	C288.124420,500.915039 289.663361,501.928864 291.668762,502.971039 
	C300.401581,494.876740 309.000641,486.405212 318.192322,478.634735 
	C321.842102,475.549316 321.698914,472.340118 320.886444,468.776306 
	C318.239685,457.166138 322.857300,445.287842 333.771515,441.032837 
	C348.705994,435.210510 362.209167,439.407104 368.246155,453.942047 
	C374.282013,468.474304 364.573212,484.944092 349.138611,488.140015 
	C343.504883,489.306580 338.995209,487.531952 334.066650,486.042572 
	C332.609039,485.602112 330.277618,485.432892 329.350739,486.261963 
	C320.092743,494.543060 310.978088,502.989685 302.029755,511.604401 
	C301.014130,512.582153 301.002258,514.873352 300.977081,516.562256 
	C300.867706,523.905640 300.882385,531.252014 300.957825,538.596191 
	C300.973816,540.152771 300.864685,542.315674 301.776520,543.165222 
	C311.755798,552.462646 321.926422,561.554688 332.737762,571.328796 
	C336.878265,568.451355 344.199219,567.717834 351.673340,569.435791 
	C360.872711,571.550232 369.299011,582.252197 369.338898,592.296875 
	C369.396881,606.906128 361.065735,615.612488 350.109833,618.455566 
	C338.113617,621.568726 322.895111,612.612610 321.155945,600.389221 
	C320.507507,595.831604 320.586395,591.044495 321.198334,586.477844 
	C321.608337,583.418213 321.263916,581.494324 318.988129,579.297913 
	C310.835205,571.429321 302.927094,563.306641 294.949982,555.256714 
	C293.684845,553.979919 292.541046,552.583008 292.039978,552.022888 
	C286.434784,553.414490 281.184570,554.717957 275.526672,556.159546 
M257.940491,527.539673 
	C258.156250,535.959167 265.646942,543.740295 273.838104,544.053833 
	C281.540955,544.348572 289.185211,537.381470 290.036255,529.137268 
	C290.691803,522.786926 288.655304,516.868469 283.571533,513.467957 
	C278.302734,509.943604 271.947784,509.419250 265.865540,512.891663 
	C260.461029,515.977173 258.874634,521.107544 257.940491,527.539673 
M338.078644,453.325531 
	C337.027008,454.387726 335.883362,455.374603 334.941193,456.526367 
	C332.177124,459.905121 332.164520,466.701355 334.833954,470.365173 
	C337.931488,474.616608 343.184143,476.399933 347.650238,475.295502 
	C355.979797,473.235596 358.823669,465.061798 356.455139,458.900696 
	C353.506989,451.231995 346.689484,449.043640 338.078644,453.325531 
M354.154114,601.496704 
	C358.611084,595.483337 357.947174,588.437683 352.498779,583.930298 
	C347.558624,579.843384 340.492706,580.388306 336.190125,585.228882 
	C332.070984,589.863159 331.074615,597.789307 337.039185,602.852905 
	C342.246552,607.273682 348.135620,607.256958 354.154114,601.496704 
z"/>
<path fill="#0073BD" opacity="1.000000" stroke="none" 
	d="
M447.020386,495.946045 
	C439.610077,513.976379 432.311310,531.634460 425.033997,549.301270 
	C422.273590,556.002563 419.613983,562.745850 416.807739,569.427673 
	C415.346619,572.906677 413.065582,575.780640 408.884735,573.753357 
	C404.873901,571.808533 406.151520,568.304871 407.434814,565.154053 
	C417.748474,539.831787 428.070679,514.512939 438.433990,489.210968 
	C439.117249,487.542847 439.818787,485.597351 441.126740,484.545776 
	C442.593903,483.366272 445.652618,481.959747 446.437408,482.597626 
	C448.070648,483.925049 449.422272,486.516663 449.474670,488.623962 
	C449.531830,490.920959 447.986969,493.257782 447.020386,495.946045 
z"/>
<path fill="#0073BD" opacity="1.000000" stroke="none" 
	d="
M381.743500,554.264954 
	C375.464386,548.022339 369.553040,541.908264 363.394073,536.054810 
	C359.944824,532.776611 360.193787,529.395813 363.091187,526.501465 
	C371.558289,518.043152 380.224731,509.775330 389.046173,501.687134 
	C391.264191,499.653442 394.418152,497.716064 397.313599,500.996887 
	C400.214630,504.284119 398.551697,507.097443 395.880249,509.581116 
	C388.112152,516.803223 380.329529,524.009705 373.989807,529.889465 
	C380.016296,536.758972 386.072296,543.676025 392.149017,550.574890 
	C393.138184,551.697937 394.904541,552.626038 395.107666,553.844910 
	C395.477081,556.062012 395.465942,558.689575 394.515961,560.600159 
	C394.160492,561.315125 390.386078,561.138123 388.798553,560.247925 
	C386.259430,558.824097 384.244324,556.465759 381.743500,554.264954 
z"/>
<path fill="#0073BE" opacity="1.000000" stroke="none" 
	d="
M470.716766,516.283936 
	C468.349213,513.914185 466.354980,511.651093 464.084412,509.711426 
	C461.127167,507.185120 461.947632,504.737244 464.064545,502.458954 
	C466.267029,500.088715 468.758484,500.330322 471.018768,502.553802 
	C475.408142,506.871674 479.709869,511.279877 484.147247,515.547363 
	C487.846680,519.105164 491.828033,522.377380 495.427246,526.029663 
	C499.032227,529.687683 498.958923,532.774048 495.269257,536.247131 
	C486.946320,544.081360 478.499084,551.783447 470.101807,559.538635 
	C467.501740,561.939819 464.666412,562.257446 462.349243,559.499329 
	C460.002045,556.705505 461.000793,554.143311 463.625366,551.736267 
	C471.055817,544.921631 478.324066,537.930115 486.067291,530.620239 
	C481.063324,525.952393 476.015289,521.243347 470.716766,516.283936 
z"/>
<path fill="#0A192F" opacity="1.000000" stroke="none" 
	d="
M349.882019,195.902328 
	C353.868591,195.263840 357.393036,194.229797 360.954407,194.081451 
	C373.866516,193.543564 386.826965,192.523239 399.703186,193.116547 
	C424.458130,194.257217 448.862335,198.267319 472.123505,207.118866 
	C487.329407,212.905167 501.347443,220.897751 513.205811,232.470825 
	C523.311157,242.332947 525.606628,254.329788 523.734985,267.393402 
	C521.778870,281.046844 517.626038,294.248077 510.371796,306.008057 
	C503.784454,316.686829 496.376434,326.916229 488.683624,336.842590 
	C477.777832,350.914764 464.101746,361.939880 448.730835,370.915039 
	C434.625153,379.151428 419.610077,384.732880 403.420013,387.070557 
	C398.942108,387.717133 394.481842,388.670715 389.981049,388.938904 
	C377.274445,389.696167 365.173676,386.016052 353.263062,382.529755 
	C337.972198,378.054077 323.957764,370.292725 311.834076,360.053406 
	C301.502747,351.327942 291.869293,341.578033 283.034943,331.326630 
	C270.994720,317.355133 262.258209,301.181885 256.823059,283.505096 
	C254.486542,275.905975 252.593811,267.934052 252.165741,260.041107 
	C251.557297,248.822800 256.457672,239.614792 264.588287,231.500580 
	C281.105103,215.017136 301.776062,207.010056 323.519073,201.053665 
	C331.991882,198.732590 340.787964,197.591629 349.882019,195.902328 
z"/>
<path fill="#0A192F" opacity="1.000000" stroke="none" 
	d="
M257.940918,527.111938 
	C258.874634,521.107544 260.461029,515.977173 265.865540,512.891663 
	C271.947784,509.419250 278.302734,509.943604 283.571533,513.467957 
	C288.655304,516.868469 290.691803,522.786926 290.036255,529.137268 
	C289.185211,537.381470 281.540955,544.348572 273.838104,544.053833 
	C265.646942,543.740295 258.156250,535.959167 257.940918,527.111938 
z"/>
<path fill="#0A192F" opacity="1.000000" stroke="none" 
	d="
M338.417847,453.138794 
	C346.689484,449.043640 353.506989,451.231995 356.455139,458.900696 
	C358.823669,465.061798 355.979797,473.235596 347.650238,475.295502 
	C343.184143,476.399933 337.931488,474.616608 334.833954,470.365173 
	C332.164520,466.701355 332.177124,459.905121 334.941193,456.526367 
	C335.883362,455.374603 337.027008,454.387726 338.417847,453.138794 
z"/>
<path fill="#0A192F" opacity="1.000000" stroke="none" 
	d="
M353.891052,601.776245 
	C348.135620,607.256958 342.246552,607.273682 337.039185,602.852905 
	C331.074615,597.789307 332.070984,589.863159 336.190125,585.228882 
	C340.492706,580.388306 347.558624,579.843384 352.498779,583.930298 
	C357.947174,588.437683 358.611084,595.483337 353.891052,601.776245 
z"/>
</svg>